<svg width="481" height="480" viewBox="0 0 481 480" fill="none" xmlns="http://www.w3.org/2000/svg">
<path d="M306.641 265.567C309.99 265.939 311.264 273.027 310.462 286.831C310.026 294.332 307.425 303.255 302.66 313.598C297.912 323.641 291.928 332.791 284.706 341.049C277.699 349.028 269.99 355.42 261.581 360.224C253.172 365.027 244.437 366.925 235.374 365.918C226.508 364.933 219.767 359.804 215.15 350.533C210.748 340.983 208.861 330.806 209.489 320.004C210.134 308.901 212.04 296.579 215.206 283.038C218.372 269.498 221.771 255.379 225.401 240.681C235.207 201.603 240.679 173.973 241.818 157.791C242.219 150.889 241.933 145.572 240.96 141.84C240.005 137.807 237.853 135.605 234.503 135.233C228.593 134.576 221.974 139.276 214.648 149.334C207.322 159.393 200.215 172.496 193.328 188.643C177.502 225.542 168.131 262.252 165.215 298.774C165.365 303.019 165.515 307.264 165.665 311.509C165.815 315.753 165.75 320.276 165.471 325.078C164.913 334.68 161.246 343.182 154.471 350.583C147.91 357.707 140.788 360.841 133.104 359.987C128.573 359.483 125.415 355.81 123.632 348.968C121.866 341.825 121.27 333.303 121.846 323.4C122.421 313.497 124.684 300.158 128.633 283.382C132.582 266.606 136.888 248.813 141.55 230.002C153.954 180.34 160.979 143.067 162.623 118.183C163.355 105.579 162.847 95.5564 161.099 88.1137C159.547 80.6928 155.816 76.6539 149.906 75.997C139.267 74.8145 128.055 85.1959 116.27 107.141C104.486 129.087 93.0433 163.906 81.9435 211.598C79.0439 223.961 76.7327 234.727 75.01 243.898L74.2175 252.418C76.3564 280.441 77.1817 298.654 76.6934 307.056C75.682 324.46 70.963 335.714 62.5366 340.818C58.6363 343.103 54.8433 345.248 51.1575 347.255C47.6687 349.283 43.9541 350.078 40.0138 349.64C30.163 348.545 26.0659 333.744 27.7226 305.237C29.3968 276.429 37.8788 220.895 53.1687 138.635C58.6559 109.043 61.5041 92.4466 61.7134 88.8457C63.126 64.5394 59.7934 51.9374 51.7157 51.0396C48.9575 50.733 46.3265 51.6486 43.8228 53.7865C41.5161 55.9462 39.1022 58.245 36.5811 60.6829C34.257 63.1428 31.843 65.4416 29.3393 67.5794C26.8356 69.7173 24.0076 70.611 20.8554 70.2606C17.9001 69.9322 16.6579 65.7169 17.1288 57.6148C18.0879 41.1106 23.8966 28.1655 34.5548 18.7796C44.8364 9.04984 56.8728 4.9514 70.6639 6.48427C88.3954 8.45511 98.1048 22.219 99.7922 47.7758C100.144 55.3653 100.273 63.3831 100.179 71.829C117.182 31.7388 136.815 12.9309 159.078 15.4054C183.311 18.0989 196.172 37.3472 197.66 73.1505C198.249 83.4845 198.105 94.4921 197.228 106.173L197.019 109.774C211.395 84.1906 227.35 72.3733 244.884 74.3222C269.708 77.0814 280.795 101.267 278.144 146.879C276.993 166.684 273.573 189.71 267.884 215.957C262.409 241.925 258.346 260.652 255.696 272.136C253.26 283.342 251.859 292.095 251.493 298.397C250.83 309.8 253.06 315.786 258.182 316.356C263.502 316.947 276.919 302.733 298.434 273.715C302.329 268.108 305.065 265.392 306.641 265.567Z" fill="#02558B"/>
<path d="M461.14 317.076C464.486 316.171 467.03 321.874 468.772 334.187C469.718 340.878 468.806 349.601 466.035 360.355C463.226 370.842 459.042 381.005 453.485 390.846C448.086 400.366 441.711 408.76 434.359 416.029C427.007 423.298 419.492 427.971 411.814 430.048C400.199 433.19 391.579 431.493 385.953 424.955C380.486 418.097 376.674 407.039 374.516 391.783C372.32 376.258 373.001 348.561 376.56 308.692C349.166 314.435 329.267 318.984 316.865 322.34L312.731 323.458C313.389 354.127 316.028 385.789 320.647 418.444C322.691 432.898 320.057 443.893 312.742 451.43C309.343 454.851 306.022 458.111 302.782 461.211C299.738 464.257 296.247 466.313 292.31 467.378C282.467 470.041 275.842 459.328 272.434 435.238C269.027 411.148 268.69 379.142 271.423 339.218C262.951 342.899 255.462 346.315 248.958 349.464C242.651 352.559 237.627 354.613 233.887 355.625C230.146 356.637 228.087 355.804 227.708 353.128C226.572 345.098 230.241 335.629 238.714 324.722C247.383 313.762 259.782 303.877 275.91 295.068C285.366 226.091 301.967 177.274 325.712 148.618C334.419 137.926 344.285 131.088 355.31 128.106C375.034 123.048 390.23 126.44 400.899 138.283C411.764 150.073 418.863 167.745 422.194 191.299C425.685 214.533 424.765 246.324 419.435 286.672C417.542 302.191 415.755 316.292 414.074 328.974C412.393 341.657 412.064 351.611 413.086 358.838C414.108 366.065 415.278 371.446 416.595 374.98C417.913 378.514 420.048 379.882 423.001 379.083C428.316 377.645 438.849 360.345 454.598 327.183C457.384 320.871 459.565 317.502 461.14 317.076ZM381.319 214.446C378.025 191.159 369.98 181.246 357.184 184.708C344.191 188.223 334.03 198.753 326.7 216.298C319.53 233.523 315.146 255.274 313.548 281.551L380.751 264.622C382.644 241.878 382.833 225.152 381.319 214.446Z" fill="#02558B"/>
</svg>
